# xmcd
#
# Track frame offsets:
#	154
#	11943
#	27792
#	38902
#	49195
#	64198
#	75515
#	91513
#	105893
#	119396
#	132447
#	149089
#	160655
#	175777
#	192865
#	206846
#	219351
#	229791
#	243540
#	256082
#	271217
#	288379
#	306858
#
# Disc length: 4325 seconds
#
# Revision: 0
# Processed by: cddbd v1.4PL0 Copyright (c) Steve Scherf et al.
# Submitted via: dBpowerAMP V4.0
#
DISCID=3f10e317
DTITLE=Braun Brothers - Vintage
DYEAR=1900
DGENRE=Country
TTITLE0=Braun Brothers - Yankee Fork
TTITLE1=Braun Brothers - Old Cowboy Blues
TTITLE2=Braun Brothers - Idaho
TTITLE3=Braun Brothers - Rodeo Man
TTITLE4=Braun Brothers - Massachusetts Woman
TTITLE5=Braun Brothers - I'm Gonna Run Away Civilization
TTITLE6=Braun Brothers - Come Along
TTITLE7=Braun Brothers - Never Looked Back at Idaho
TTITLE8=Braun Brothers - Love You, Yes Indeed
TTITLE9=Braun Brothers - Heart of Idaho
TTITLE10=Braun Brothers - Writing You Love Songs Again
TTITLE11=Braun Brothers - JoAnn
TTITLE12=Braun Brothers - Boom
TTITLE13=Braun Brothers - The White Clouds
TTITLE14=Braun Brothers - 1000 Cups of Coffee
TTITLE15=Braun Brothers - Idaho Swing
TTITLE16=Braun Brothers - Weekend Logger Blues
TTITLE17=Braun Brothers - The Cowboy From MacKay
TTITLE18=Braun Brothers - Born 100 Years Too Late
TTITLE19=Braun Brothers - Willie's Old Guitar
TTITLE20=Braun Brothers - Red and the Kid
TTITLE21=Braun Brothers - Lady Lou
TTITLE22=Braun Brothers - Save it for the Babies
EXTD=
EXTT0=
EXTT1=
EXTT2=
EXTT3=
EXTT4=
EXTT5=
EXTT6=
EXTT7=
EXTT8=
EXTT9=
EXTT10=
EXTT11=
EXTT12=
EXTT13=
EXTT14=
EXTT15=
EXTT16=
EXTT17=
EXTT18=
EXTT19=
EXTT20=
EXTT21=
EXTT22=
PLAYORDER=
